# xmcd
#
# Track frame offsets:
#	150
#	15546
#	29207
#	43177
#	60068
#	72652
#	85175
#	105126
#	119513
#	137610
#	158307
#	173497
#
# Disc length: 2766 seconds
#
# Revision: 0
# Processed by: cddbd v1.5.2PL0 Copyright (c) Steve Scherf et al.
# Submitted via: EasyCDDAExtractor 10.0.3.1
#
DISCID=8e0acc0c
DTITLE=Various Artist - Mini Mini - kolysanki 2
DYEAR=2007
DGENRE=Other
TTITLE0=w sukieneczkach z pajeczynki
TTITLE1=idzie niebo ciemna noca
TTITLE2=zachodzze sloneczko
TTITLE3=bocian
TTITLE4=mala myszka
TTITLE5=chodzil senek i drzemota
TTITLE6=zabka malgosia
TTITLE7=mala kasia zaplakana
TTITLE8=zasypianki
TTITLE9=bajeczki spia
TTITLE10=dawno juz ucichl
TTITLE11=bajki snia
EXTD=
EXTT0=
EXTT1=
EXTT2=
EXTT3=
EXTT4=
EXTT5=
EXTT6=
EXTT7=
EXTT8=
EXTT9=
EXTT10=
EXTT11=
PLAYORDER=
